<svg width="301" height="301" viewBox="0 0 301 301" fill="none" xmlns="http://www.w3.org/2000/svg">
<path d="M0 0C99.33 0 198.66 0 301 0C301 99.33 301 198.66 301 301C201.67 301 102.34 301 0 301C0 201.67 0 102.34 0 0Z" fill="#F5F5DC"/>
<path d="M153.51 64.8308C154.503 64.3214 155.497 63.812 156.52 63.2872C165.769 62.4967 170.112 63.2881 177.59 69.4616C178.335 70.2256 178.335 70.2256 179.095 71.0051C181.445 71.1685 183.797 71.29 186.15 71.391C194.028 72.1131 197.354 74.6862 203.175 80.2667C205.214 81.3573 207.286 82.3853 209.383 83.3539C221.157 89.1631 227.489 103.42 233.087 115.094C235.914 123.952 235.774 131.128 232.993 139.984C229.102 147.278 225.066 152.769 218.225 157.446C215.367 157.554 212.507 157.65 209.647 157.638C199.719 157.341 199.719 157.341 191.153 161.613C189.397 164.786 188.024 167.99 186.62 171.339C178.784 179.174 171.695 179.113 161.129 179.442C152.545 179.89 152.545 179.89 145.044 183.687C138.09 192.697 135.094 201.706 133.945 213.015C133.448 213.525 132.952 214.034 132.44 214.559C138.4 216.087 144.36 217.615 150.5 219.19C150.5 220.209 150.5 221.227 150.5 222.277C140.794 221.463 132.83 218.819 123.786 215.234C104.975 208.136 104.975 208.136 85.8673 212.033C82.1654 214.248 78.6877 216.569 75.25 219.19C77.4478 212.427 81.6775 210.683 87.531 207.203C96.1197 203.374 104.014 204.569 112.875 206.841C112.875 202.257 112.875 197.672 112.875 192.949C111.168 192.885 109.461 192.821 107.702 192.756C99.4723 191.646 93.2891 187.958 87.29 182.144C83.0477 175.506 80.2567 168.588 81.27 160.533C80.1525 160.183 79.0351 159.833 77.8837 159.472C72.9057 157.035 70.8124 154.365 67.725 149.728C65.365 142.467 65.818 135.145 65.7497 127.539C65.706 125.931 65.6624 124.324 65.6174 122.667C65.5212 110.8 65.5212 110.8 69.0595 104.699C72.24 101.877 72.24 101.877 75.4381 100.526C76.3693 99.9532 77.3006 99.3802 78.26 98.7898C78.6325 97.1661 79.005 95.5424 79.3887 93.8696C81.2182 85.9324 86.8926 81.5436 93.31 77.1795C96.7864 76.0313 100.298 74.9847 103.845 74.0923C104.997 73.1034 106.15 72.1145 107.337 71.0956C119.588 61.4426 138.949 61.5639 153.51 64.8308Z" fill="#F5F5DC"/>
<path d="M153.51 64.8308C154.503 64.3214 155.497 63.812 156.52 63.2872C165.769 62.4967 170.112 63.2881 177.59 69.4616C178.335 70.2256 178.335 70.2256 179.095 71.0051C181.445 71.1685 183.797 71.29 186.15 71.391C194.028 72.1131 197.354 74.6862 203.175 80.2667C205.214 81.3573 207.286 82.3853 209.383 83.3539C221.157 89.1631 227.489 103.42 233.087 115.094C235.914 123.952 235.774 131.128 232.993 139.984C229.102 147.278 225.066 152.769 218.225 157.446C215.367 157.554 212.507 157.65 209.647 157.638C199.719 157.341 199.719 157.341 191.153 161.613C189.397 164.786 188.024 167.99 186.62 171.339C178.784 179.174 171.695 179.113 161.129 179.442C152.545 179.89 152.545 179.89 145.044 183.687C138.09 192.697 135.094 201.706 133.945 213.015C133.448 213.525 132.952 214.034 132.44 214.559C138.4 216.087 144.36 217.615 150.5 219.19C150.5 220.209 150.5 221.227 150.5 222.277C140.794 221.463 132.83 218.819 123.786 215.234C104.975 208.136 104.975 208.136 85.8673 212.033C82.1654 214.248 78.6877 216.569 75.25 219.19C77.4478 212.427 81.6775 210.683 87.531 207.203C96.1197 203.374 104.014 204.569 112.875 206.841C112.875 202.257 112.875 197.672 112.875 192.949C111.168 192.885 109.461 192.821 107.702 192.756C99.4723 191.646 93.2891 187.958 87.29 182.144C83.0477 175.506 80.2567 168.588 81.27 160.533C80.1525 160.183 79.0351 159.833 77.8837 159.472C72.9057 157.035 70.8124 154.365 67.725 149.728C65.365 142.467 65.818 135.145 65.7497 127.539C65.706 125.931 65.6624 124.324 65.6174 122.667C65.5212 110.8 65.5212 110.8 69.0595 104.699C72.24 101.877 72.24 101.877 75.4381 100.526C76.3693 99.9532 77.3006 99.3802 78.26 98.7898C78.6325 97.1661 79.005 95.5424 79.3887 93.8696C81.2182 85.9324 86.8926 81.5436 93.31 77.1795C96.7864 76.0313 100.298 74.9847 103.845 74.0923C104.997 73.1034 106.15 72.1145 107.337 71.0956C119.588 61.4426 138.949 61.5639 153.51 64.8308ZM133.945 67.918C133.502 72.7994 133.502 72.7994 136.955 76.7936C140.441 82.6029 140.487 85.9223 139.965 92.6154C138.475 93.1248 136.985 93.6342 135.45 94.159C135.574 92.2806 135.698 90.4023 135.826 88.467C135.844 83.2418 135.509 81.9049 132.628 77.276C128.553 73.2195 127.238 72.6294 121.529 72.0664C114.93 72.6303 111.948 74.4941 106.855 78.7231C106.358 79.7419 105.862 80.7606 105.35 81.8103C103.736 82.0013 102.122 82.1923 100.459 82.3891C94.2306 83.4538 91.7588 85.0796 87.29 89.5282C85.0651 94.0921 85.6942 98.392 85.785 103.421C84.3882 103.834 82.9913 104.248 81.5522 104.675C76.9189 106.445 75.168 107.242 72.24 111.138C71.5476 114.584 71.5476 114.584 71.6403 118.41C71.6345 119.823 71.6287 121.236 71.6227 122.691C71.6402 124.164 71.6576 125.636 71.6756 127.153C71.6582 128.614 71.6407 130.074 71.6227 131.579C71.6545 139.318 71.6806 145.084 76.755 151.272C79.8658 153.322 79.8658 153.322 82.775 154.359C83.1164 152.767 83.4579 151.175 83.8097 149.535C85.8758 142.266 89.5185 136.438 96.1436 132.688C98.6663 131.568 101.253 130.6 103.845 129.662C102.164 134.835 101.543 135.165 97.2606 137.862C91.861 141.717 89.3205 144.656 87.29 151.272C86.2964 160.889 86.1475 169.389 91.805 177.513C99.5731 186.502 107.479 186.887 118.895 188.318C118.398 195.449 117.902 202.581 117.39 209.928C124.37 213.756 124.37 213.756 129.43 211.472C129.57 208.511 129.57 208.511 129.712 205.49C130.918 194.618 134.831 185.258 143.069 178.188C149.869 174.775 155.557 174.226 163.104 173.847C171.755 173.2 178.442 172.362 184.539 165.52C188.357 159.203 187.709 152.256 186.62 145.097C184.138 139.885 181.01 136.579 175.615 134.485C174.777 134.422 173.938 134.358 173.075 134.292C173.075 132.764 173.075 131.236 173.075 129.662C180.707 132.522 185.233 134.662 189.63 142.01C190.683 145.597 191.692 149.198 192.64 152.815C196.502 152.764 200.351 152.66 204.21 152.526C205.295 152.517 206.381 152.508 207.499 152.499C213.714 152.237 216.109 151.786 221.094 147.594C227.593 139.262 229.264 132.989 229.36 122.51C228.645 118.153 227.044 115.979 224.245 112.682C220.845 117.705 220.845 117.705 219.73 123.487C218.461 123.674 217.192 123.861 215.885 124.054C213.412 124.442 213.412 124.442 210.888 124.838C209.247 125.089 207.606 125.339 205.915 125.598C201.49 126.208 201.49 126.208 198.66 129.662C194.145 130.047 194.145 130.047 189.63 129.662C186.62 126.574 186.62 126.574 186.244 122.715C186.62 118.856 186.62 118.856 189.63 115.769C194.145 115.287 194.145 115.287 198.66 115.769C200.15 118.061 200.15 118.061 201.67 120.4C207.398 121.162 210.847 121.221 215.873 118.181C219.411 112.23 219.684 107.107 218.225 100.333C213.655 91.7039 207.457 88.3425 198.66 84.8975C197.48 83.7832 196.301 82.6689 195.086 81.5209C190.627 78.3634 189.548 78.5036 184.362 78.8196C178.525 79.1383 177.999 79.0708 173.169 74.9606C172.145 73.6553 171.12 72.35 170.065 71.0051C165.504 68.6664 161.56 69.1987 156.52 69.4616C155.185 70.0665 153.851 70.6713 152.475 71.2946C151.327 71.7084 150.178 72.1223 148.995 72.5487C146.949 71.0598 144.945 69.5101 142.975 67.918C138.208 67.5307 138.208 67.5307 133.945 67.918Z" fill="#F2B5C1"/>
<path d="M7.52498 16.9795C11.1338 20.6809 10.8875 21.5782 11.0994 26.6269C12.0993 39.2083 14.7616 54.7529 22.575 64.8308C26.027 66.8017 29.3666 68.0852 33.11 69.4616C32.1729 65.7945 31.2317 62.1287 30.2881 58.4635C30.0262 57.4367 29.7643 56.41 29.4945 55.3522C27.898 49.1665 26.1203 43.0978 24.08 37.0462C29.4276 41.2442 30.7341 47.2193 32.6397 53.5433C32.9782 54.6267 33.3167 55.7102 33.6655 56.8264C34.496 59.4905 35.3097 62.1601 36.12 64.8308C38.1066 62.7932 40.0932 60.7557 42.14 58.6564C42.14 60.1846 42.14 61.7127 42.14 63.2872C43.6299 62.7778 45.1199 62.2684 46.655 61.7436C49.9824 61.6146 53.3135 61.5779 56.6432 61.5929C59.5751 61.6003 59.5751 61.6003 62.5662 61.6079C64.6307 61.6208 66.6952 61.6339 68.7597 61.6471C70.8418 61.6549 72.9239 61.6619 75.006 61.6682C80.1041 61.6864 85.202 61.7119 90.3 61.7436C89.555 64.0358 89.555 64.0358 88.795 66.3744C87.8017 65.865 86.8084 65.3556 85.785 64.8308C80.4632 64.4567 75.1272 64.5449 69.7944 64.5414C68.3296 64.5225 66.8649 64.5036 65.3558 64.4841C55.6342 64.4639 46.4903 64.9152 37.625 69.4616C38.1216 70.9897 38.6183 72.5179 39.13 74.0923C47.1243 78.192 59.5346 76.7745 67.8426 74.2009C70.3963 73.0904 72.9255 71.9168 75.4146 70.6614C76.3536 70.2655 77.2925 69.8695 78.26 69.4616C79.7499 70.2256 79.7499 70.2256 81.27 71.0051C78.9244 72.2711 76.5714 73.5224 74.2153 74.7676C72.251 75.8153 72.251 75.8153 70.247 76.884C63.8876 79.7882 57.9914 80.5013 51.0759 80.5561C49.1873 80.5889 49.1873 80.5889 47.2605 80.6224C43.3905 80.2416 40.9578 79.1768 37.625 77.1795C38.1216 78.1983 38.6183 79.217 39.13 80.2667C41.0729 110.979 39.8446 136.905 24.08 163.621C22.7996 165.814 22.7996 165.814 21.4933 168.052C20.8569 169.137 20.2206 170.221 19.565 171.338C23.5382 171.848 27.5114 172.357 31.605 172.882C31.605 173.901 31.605 174.92 31.605 175.969C27.6318 175.969 23.6586 175.969 19.565 175.969C24.6445 192.972 30.2173 208.513 39.13 223.821C44.5931 223.311 50.0563 222.802 55.685 222.277C51.17 226.908 51.17 226.908 46.3728 227.197C44.976 227.102 43.5791 227.006 42.14 226.908C62.8704 257.85 93.8129 277.534 129.659 284.497C166.305 290.529 203.996 282.014 234.78 260.867C237.963 258.415 240.873 255.91 243.81 253.149C244.803 253.658 245.797 254.168 246.82 254.692C221.327 279.594 185.47 291.048 150.833 290.85C110.312 289.598 76.0815 270.395 48.548 241.029C39.13 230.587 39.13 230.587 39.13 226.908C37.8263 226.78 36.5226 226.653 35.1794 226.522C29.3816 225.2 25.8134 222.781 21.07 219.19C26.1572 219.19 29.8512 220.54 34.615 222.277C33.4422 220.2 33.4422 220.2 32.2458 218.08C24.3895 203.798 15.05 186.621 15.05 169.795C14.0567 169.795 13.0634 169.795 12.04 169.795C12.3019 168.716 12.5638 167.638 12.8336 166.527C13.6143 161.643 13.3731 157.539 12.8865 152.622C10.1109 123.722 19.4971 96.6697 31.605 71.0051C29.8619 70.7126 29.8619 70.7126 28.0835 70.4142C22.183 69.0102 20.2842 66.6472 16.555 61.7436C10.0393 47.226 7.03297 32.8753 7.52498 16.9795Z" fill="#F5F5DC"/>
<path d="M156.52 64.8308C156.52 66.8683 156.52 68.9058 156.52 71.0051C153.134 72.8381 153.134 72.8381 148.995 74.0923C146.949 72.6034 144.945 71.0537 142.975 69.4615C138.208 69.0743 138.208 69.0743 133.945 69.4615C134.76 70.6106 134.76 70.6106 135.591 71.7829C140.517 79.1782 142.379 83.6663 141.47 92.6154C139.483 93.1248 137.497 93.6341 135.45 94.159C135.303 93.0984 135.155 92.0379 135.003 90.9452C134.778 89.5543 134.553 88.1634 134.321 86.7304C134.112 85.3515 133.902 83.9726 133.686 82.5519C132.156 77.8505 130.592 76.4937 126.42 74.0923C118.909 73.252 114.372 73.9667 108.36 78.7231C106.87 81.0153 106.87 81.0153 105.35 83.3538C102.882 83.6404 102.882 83.6404 100.365 83.9327C93.487 85.1283 91.404 86.9067 87.29 92.6154C86.9641 95.3852 86.9641 95.3852 86.6316 98.2109C86.3522 99.9301 86.0728 101.649 85.785 103.421C81.3641 106.218 81.3641 106.218 76.755 108.051C72.365 112.554 73.3063 116.396 73.26 122.556C73.2648 124.041 73.2697 125.526 73.2747 127.057C73.2504 128.524 73.2262 129.992 73.2012 131.504C73.1593 142.179 73.1593 142.179 78.26 151.272C79.7499 152.291 81.2399 153.309 82.775 154.359C82.8371 152.799 82.8992 151.239 82.9631 149.632C83.9555 142.267 88.1695 137.719 93.31 132.749C97.825 129.662 97.825 129.662 103.845 129.662C103.657 132.363 103.657 132.363 102.34 135.836C100.198 137.269 100.198 137.269 98.0131 138.73C92.424 142.628 90.8916 144.701 88.795 151.272C87.7882 160.895 87.6854 169.357 93.31 177.513C99.9623 185.436 109.311 185.583 118.895 186.774C120.367 192.633 120.289 196.809 118.989 202.693C118.55 204.737 118.55 204.737 118.101 206.823C117.749 208.36 117.749 208.36 117.39 209.928C128.335 213.43 139.358 216.421 150.5 219.19C150.5 220.209 150.5 221.227 150.5 222.277C140.794 221.463 132.83 218.818 123.786 215.234C104.975 208.136 104.975 208.136 85.8673 212.033C82.1654 214.248 78.6877 216.569 75.25 219.19C77.4478 212.427 81.6775 210.683 87.531 207.203C96.1197 203.374 104.014 204.569 112.875 206.841C112.875 202.257 112.875 197.672 112.875 192.949C111.168 192.885 109.461 192.821 107.702 192.756C99.4723 191.646 93.2891 187.958 87.29 182.144C83.0477 175.506 80.2567 168.588 81.27 160.533C80.1525 160.183 79.0351 159.833 77.8837 159.472C72.9057 157.035 70.8124 154.365 67.725 149.728C65.365 142.467 65.818 135.145 65.7497 127.539C65.706 125.931 65.6624 124.324 65.6174 122.667C65.5212 110.8 65.5212 110.8 69.0595 104.699C72.24 101.877 72.24 101.877 75.4381 100.526C76.3693 99.9532 77.3006 99.3802 78.26 98.7897C78.6325 97.1661 79.005 95.5424 79.3887 93.8695C81.2182 85.9324 86.8926 81.5436 93.31 77.1795C96.7864 76.0313 100.298 74.9846 103.845 74.0923C104.997 73.1034 106.15 72.1145 107.337 71.0956C120.545 60.6889 140.872 62.0396 156.52 64.8308Z" fill="#F2B3BF"/>
<path d="M24.08 87.9846C25.9834 93.8413 24.8044 95.9113 22.8572 101.684C19.6047 111.945 17.8512 122.06 16.555 132.749C17.5483 133.258 18.5416 133.767 19.565 134.292C18.5717 135.311 17.5784 136.33 16.555 137.379C16.1294 142.299 16.1294 142.299 16.2728 147.895C16.2825 149.784 16.2922 151.672 16.3022 153.617C16.517 158.182 17.031 162.275 18.06 166.708C20.0466 164.67 22.0332 162.633 24.08 160.533C21.2581 167.865 21.2581 167.865 19.565 171.338C23.5382 171.848 27.5114 172.357 31.605 172.882C31.605 173.901 31.605 174.92 31.605 175.969C27.6318 175.969 23.6586 175.969 19.565 175.969C24.6445 192.972 30.2173 208.513 39.13 223.821C47.3247 223.056 47.3247 223.056 55.685 222.277C51.17 226.908 51.17 226.908 46.3728 227.197C44.2775 227.054 44.2775 227.054 42.14 226.908C62.8704 257.85 93.8129 277.534 129.659 284.497C166.305 290.529 203.996 282.014 234.78 260.867C237.963 258.415 240.873 255.91 243.81 253.149C244.803 253.658 245.797 254.167 246.82 254.692C221.327 279.594 185.47 291.048 150.833 290.849C110.312 289.598 76.0815 270.395 48.548 241.029C39.13 230.587 39.13 230.587 39.13 226.908C37.8263 226.78 36.5226 226.653 35.1794 226.522C29.3816 225.2 25.8134 222.781 21.07 219.19C26.1572 219.19 29.8512 220.54 34.615 222.277C33.8331 220.892 33.0513 219.507 32.2458 218.08C24.3895 203.798 15.05 186.621 15.05 169.795C14.0567 169.795 13.0634 169.795 12.04 169.795C12.3019 168.716 12.5638 167.638 12.8336 166.527C13.6143 161.643 13.3731 157.539 12.8865 152.622C10.8512 131.43 14.7588 107.105 24.08 87.9846Z" fill="#9E182B"/>
<path d="M162.634 85.1869C167.055 86.441 167.055 86.441 170.065 89.5282C170.441 94.159 170.441 94.159 170.065 98.7897C169.072 99.8085 168.078 100.827 167.055 101.877C166.353 104.526 165.737 107.2 165.174 109.884C162.46 120.555 158.056 126.807 148.901 132.556C138.314 136.714 126.085 138.225 115.415 133.521C109.105 129.838 104.786 124.333 102.34 117.313C102.91 113.84 102.91 113.84 103.845 111.138C105.335 111.138 106.825 111.138 108.36 111.138C108.707 111.976 109.055 112.814 109.412 113.677C111.661 118.737 113.601 122.735 117.578 126.574C127.259 130.028 137.115 129.018 146.455 124.904C152.182 121.709 155.719 117.324 158.025 111.138C158.601 108.065 159.118 104.978 159.53 101.877C157.543 100.858 155.557 99.8394 153.51 98.7897C152.97 90.4821 152.97 90.4821 155.203 86.5375C158.025 84.8974 158.025 84.8974 162.634 85.1869Z" fill="#F3B6C1"/>
<path d="M7.52498 16.9795C11.1338 20.6809 10.8875 21.5782 11.0994 26.6269C12.0993 39.2083 14.7616 54.7529 22.575 64.8308C26.0271 66.8017 29.3666 68.0852 33.11 69.4615C32.1729 65.7945 31.2317 62.1287 30.2881 58.4635C30.0262 57.4367 29.7643 56.41 29.4945 55.3522C27.898 49.1665 26.1203 43.0978 24.08 37.0462C29.4276 41.2442 30.7341 47.2193 32.6397 53.5433C32.9782 54.6267 33.3167 55.7101 33.6655 56.8264C34.496 59.4905 35.3097 62.1601 36.12 64.8308C38.1066 62.7932 40.0932 60.7557 42.14 58.6564C42.14 60.1846 42.14 61.7127 42.14 63.2872C43.6299 62.7778 45.1199 62.2684 46.655 61.7436C49.9824 61.6146 53.3135 61.5779 56.6432 61.5928C59.5751 61.6003 59.5751 61.6003 62.5662 61.6079C64.6307 61.6208 66.6952 61.6339 68.7597 61.6471C70.8418 61.6549 72.9239 61.6619 75.006 61.6682C80.1041 61.6864 85.202 61.7119 90.3 61.7436C89.555 64.0358 89.555 64.0358 88.795 66.3744C87.8017 65.865 86.8084 65.3556 85.785 64.8308C80.4632 64.4567 75.1272 64.5449 69.7944 64.5413C68.3296 64.5224 66.8649 64.5035 65.3558 64.4841C55.6342 64.4639 46.4903 64.9152 37.625 69.4615C38.1216 70.9897 38.6183 72.5178 39.13 74.0923C47.1243 78.192 59.5346 76.7744 67.8426 74.2008C70.3963 73.0904 72.9255 71.9168 75.4146 70.6614C76.3536 70.2655 77.2926 69.8695 78.26 69.4615C79.7499 70.2256 79.7499 70.2256 81.27 71.0051C78.9244 72.271 76.5714 73.5224 74.2153 74.7676C72.251 75.8153 72.251 75.8153 70.247 76.884C63.8876 79.7882 57.9914 80.5013 51.0759 80.5561C49.1873 80.5889 49.1873 80.5889 47.2605 80.6224C43.3905 80.2416 40.9578 79.1767 37.625 77.1795C38.1216 78.1983 38.6183 79.217 39.13 80.2667C42.5659 134.579 42.5659 134.579 30.1 149.728C30.5345 147.945 30.9691 146.163 31.4169 144.326C33.8107 133.4 34.8705 122.25 36.12 111.138C35.1267 112.157 34.1334 113.176 33.11 114.226C33.4825 112.411 33.4825 112.411 33.8625 110.56C35.4438 98.8013 34.5851 87.3616 33.11 75.6359C31.1234 79.711 29.1368 83.786 27.09 87.9846C25.585 83.3538 25.585 83.3538 26.7549 80.2003C27.3311 79.1079 27.9073 78.0156 28.5009 76.8901C29.0732 75.7857 29.6455 74.6814 30.2352 73.5436C30.6872 72.7059 31.1393 71.8682 31.605 71.0051C30.5186 70.9096 29.4321 70.8141 28.3128 70.7157C22.3874 68.96 20.368 66.7575 16.555 61.7436C10.0393 47.226 7.03297 32.8753 7.52498 16.9795Z" fill="#9E182B"/>
<path d="M81.27 162.077C84.8764 163.569 86.8889 164.483 88.9302 167.95C89.3512 169.004 89.7722 170.059 90.2059 171.145C92.9688 177.093 95.0085 180.45 100.835 183.687C106.818 185.083 112.806 186.017 118.895 186.774C120.367 192.633 120.289 196.809 118.989 202.693C118.696 204.056 118.403 205.419 118.101 206.823C117.867 207.848 117.632 208.872 117.39 209.928C128.335 213.43 139.358 216.421 150.5 219.19C150.5 220.208 150.5 221.227 150.5 222.277C140.794 221.463 132.83 218.818 123.786 215.234C104.975 208.136 104.975 208.136 85.8673 212.033C82.1654 214.248 78.6877 216.569 75.25 219.19C77.4478 212.427 81.6775 210.683 87.531 207.203C96.1197 203.374 104.014 204.569 112.875 206.841C112.875 202.257 112.875 197.672 112.875 192.949C111.168 192.885 109.461 192.821 107.702 192.756C99.4765 191.647 93.2812 187.962 87.29 182.144C83.0904 175.469 81.27 170.029 81.27 162.077Z" fill="#F2B4C0"/>
<path d="M13.545 174.426C14.5383 174.426 15.5316 174.426 16.555 174.426C17.3494 177.058 17.3494 177.058 18.1599 179.744C22.9526 195.245 28.543 209.52 36.12 223.821C20.5523 220.786 20.5523 220.786 15.7672 214.758C9.39657 204.466 8.01879 195.822 9.02998 183.687C11.2875 177.995 11.2875 177.995 13.545 174.426Z" fill="#F5F5DC"/>
<path d="M96.32 155.903C100.835 157.446 100.835 157.446 103.657 161.402C111.042 167.31 118.885 165.775 127.925 165.164C128.111 164.209 128.297 163.254 128.489 162.27C129.43 158.99 129.43 158.99 132.44 155.903C137.151 155.389 140.234 155.167 144.386 157.639C145.985 160.533 145.985 160.533 145.703 165.261C144.48 169.795 144.48 169.795 141.47 172.882C136.109 173.625 130.695 173.454 125.291 173.461C123.056 173.518 123.056 173.518 120.776 173.575C111.576 173.613 106.376 172.896 99.33 166.708C98.3677 165.944 97.4055 165.18 96.414 164.392C94.815 162.077 94.815 162.077 95.2853 158.7C95.6267 157.777 95.9682 156.854 96.32 155.903Z" fill="#F3B8C4"/>
<path d="M169.124 136.994C173.075 137.379 173.075 137.379 175.897 139.02C178.588 143.773 177.208 147.634 176.085 152.815C174.58 154.359 174.58 154.359 169.407 154.648C164.045 154.359 164.045 154.359 161.035 151.272C161.035 149.234 161.035 147.197 161.035 145.097C153.778 145.599 153.778 145.599 147.584 149.053C147.056 149.785 146.529 150.517 145.985 151.272C144.495 150.762 143.005 150.253 141.47 149.728C142.016 145.667 142.623 143.895 145.568 141.039C149.7 138.488 152.031 138.484 156.802 138.73C159.215 138.839 161.63 138.914 164.045 138.923C165.55 137.379 165.55 137.379 169.124 136.994Z" fill="#F3B8C3"/>
<path d="M114.38 87.9846C116.367 87.9846 118.353 87.9846 120.4 87.9846C120.647 89.2949 120.647 89.2949 120.9 90.6316C121.138 91.7638 121.377 92.896 121.623 94.0625C121.85 95.1907 122.077 96.3189 122.311 97.4813C122.673 98.4225 123.036 99.3636 123.41 100.333C124.9 100.843 126.39 101.352 127.925 101.877C128.422 101.368 128.918 100.858 129.43 100.333C134.603 100.044 134.603 100.044 139.965 100.333C142.975 103.421 142.975 103.421 143.445 107.955C142.975 112.682 142.975 112.682 141.188 115.576C137.367 118.009 135.354 118.197 130.935 117.313C128.019 113.936 128.019 113.936 124.915 109.595C123.332 108.449 121.749 107.303 120.118 106.122C114.921 100.91 114.735 97.9395 114.392 90.7522C114.388 89.8389 114.384 88.9256 114.38 87.9846Z" fill="#F2B2BE"/>
<path d="M78.26 69.4615C79.2533 69.9709 80.2466 70.4803 81.27 71.0051C78.9244 72.2711 76.5713 73.5224 74.2153 74.7676C72.9058 75.4661 71.5962 76.1645 70.247 76.884C63.8876 79.7882 57.9914 80.5013 51.0759 80.5561C49.8168 80.578 48.5577 80.5999 47.2605 80.6224C43.3905 80.2416 40.9578 79.1768 37.625 77.1795C38.1216 78.1983 38.6183 79.217 39.13 80.2667C42.5659 134.579 42.5659 134.579 30.1 149.728C30.5345 147.945 30.9691 146.163 31.4169 144.326C33.8107 133.4 34.8705 122.25 36.12 111.138C35.1267 112.157 34.1334 113.176 33.11 114.226C33.3602 112.99 33.6105 111.754 33.8684 110.481C34.9302 102.635 34.6272 94.9146 34.4239 87.0108C34.4074 85.814 34.3909 84.6171 34.3739 83.384C34.3359 81.7628 34.3359 81.7628 34.2971 80.1088C34.615 77.1795 34.615 77.1795 37.625 72.5487C39.1149 73.5675 40.6049 74.5863 42.14 75.6359C54.1809 77.017 64.5124 76.1597 75.4146 70.6614C76.3536 70.2655 77.2925 69.8695 78.26 69.4615Z" fill="#9E182B"/>
<path d="M24.08 197.58C28.1463 202.764 31.1108 208.302 34.1447 214.173C34.6268 215.102 35.1089 216.032 35.6056 216.989C36.7849 219.264 37.9581 221.542 39.13 223.821C44.5932 223.311 50.0563 222.802 55.685 222.277C51.17 226.908 51.17 226.908 46.3728 227.197C44.2776 227.054 44.2776 227.054 42.14 226.908C48.0172 235.409 54.3263 242.897 61.705 250.062C57.19 250.062 57.19 250.062 53.9449 247.24C52.7808 246.006 51.6168 244.772 50.4175 243.501C49.2535 242.284 48.0895 241.066 46.8902 239.811C39.13 231.102 39.13 231.102 39.13 226.908C37.8263 226.78 36.5226 226.653 35.1794 226.522C29.3816 225.2 25.8134 222.781 21.07 219.19C26.1573 219.19 29.8512 220.54 34.615 222.277C33.8545 220.882 33.094 219.487 32.3105 218.05C31.3223 216.211 30.3347 214.372 29.3475 212.533C28.845 211.615 28.3426 210.696 27.8249 209.75C25.4823 205.362 24.08 202.663 24.08 197.58Z" fill="#9E182B"/>
<path d="M116.973 208.499C119.341 209.487 121.704 210.489 124.063 211.502C132.795 215.233 141.155 217.64 150.5 219.19C150.5 220.209 150.5 221.227 150.5 222.277C140.794 221.463 132.83 218.818 123.786 215.234C104.975 208.136 104.975 208.136 85.8673 212.033C82.1654 214.248 78.6877 216.569 75.25 219.19C77.4501 212.42 81.6819 210.668 87.5604 207.215C97.5476 202.703 107.055 204.727 116.973 208.499Z" fill="#9E182B"/>
<path d="M179.095 91.0718C184.673 92.9789 186.092 95.6511 189.63 100.333C193.293 102.212 196.28 102.37 200.353 102.745C201.723 102.875 203.092 103.004 204.504 103.137C205.555 103.231 206.607 103.324 207.69 103.42C207.193 105.458 206.697 107.496 206.185 109.595C196.736 110.37 191.18 109.92 183.61 103.42C182.399 102.402 181.189 101.383 179.942 100.333C177.59 97.2461 177.59 97.2461 177.966 93.7731C178.339 92.8816 178.711 91.9902 179.095 91.0718Z" fill="#F2B3BF"/>
<path d="M191.135 145.097C191.632 145.097 192.128 145.097 192.64 145.097C192.64 147.644 192.64 150.191 192.64 152.815C193.571 152.497 194.502 152.179 195.462 151.851C196.517 151.66 197.573 151.469 198.66 151.272C199.653 152.291 200.647 153.309 201.67 154.359C205.677 155.073 205.677 155.073 210.136 155.324C211.645 155.439 213.154 155.555 214.709 155.673C215.87 155.749 217.03 155.825 218.225 155.903C218.225 156.412 218.225 156.921 218.225 157.446C216.522 157.522 214.818 157.597 213.063 157.675C210.833 157.791 208.603 157.908 206.373 158.025C205.25 158.073 204.127 158.12 202.969 158.17C196.35 158.305 196.35 158.305 191.135 162.077C189.148 162.586 187.162 163.096 185.115 163.62C185.612 159.036 186.108 154.452 186.62 149.728C187.613 150.747 188.607 151.766 189.63 152.815C190.127 150.268 190.623 147.722 191.135 145.097Z" fill="#F4BDC7"/>
<path d="M162.54 214.559C168.003 214.559 173.466 214.559 179.095 214.559C178.598 216.596 178.102 218.634 177.59 220.733C172.981 222.663 172.981 222.663 168.56 223.82C166.49 221.83 164.485 219.766 162.54 217.646C162.54 216.627 162.54 215.609 162.54 214.559Z" fill="#9E182B"/>
<path d="M198.66 151.272C205.116 151.272 211.573 151.272 218.225 151.272C218.225 152.8 218.225 154.328 218.225 155.903C211.769 155.903 205.312 155.903 198.66 155.903C198.66 154.374 198.66 152.846 198.66 151.272Z" fill="#F1ACBA"/>
<path d="M227.255 114.226C230.235 115.754 230.235 115.754 233.275 117.313C233.397 119.562 233.484 121.814 233.557 124.066C233.61 125.32 233.662 126.573 233.716 127.865C233.57 128.967 233.425 130.069 233.275 131.205C231.785 132.224 230.295 133.243 228.76 134.292C228.263 127.67 227.767 121.048 227.255 114.226Z" fill="#F1ADBA"/>
<path d="M136.955 100.333C138.445 100.843 139.935 101.352 141.47 101.877C139.98 104.933 138.49 107.99 136.955 111.138C135.465 111.138 133.975 111.138 132.44 111.138C132.44 109.101 132.44 107.063 132.44 104.964C133.433 104.964 134.427 104.964 135.45 104.964C135.947 103.436 136.443 101.908 136.955 100.333Z" fill="#F3B6C1"/>
<path d="M103.845 111.138C105.335 111.138 106.825 111.138 108.36 111.138C108.857 113.685 109.353 116.232 109.865 118.856C107.878 119.366 105.892 119.875 103.845 120.4C103.27 117.844 102.771 115.268 102.34 112.682C102.837 112.173 103.333 111.663 103.845 111.138Z" fill="#F4BCC7"/>
<path d="M135.45 81.8102C136.94 82.3196 138.43 82.829 139.965 83.3538C139.965 86.9195 139.965 90.4852 139.965 94.159C138.475 94.159 136.985 94.159 135.45 94.159C135.45 90.0839 135.45 86.0088 135.45 81.8102Z" fill="#F1ACB9"/>
<path d="M132.44 155.903C137.143 155.613 137.143 155.613 141.47 155.903C138.836 159.086 138.836 159.086 135.45 162.077C132.064 161.691 132.064 161.691 129.43 160.533C130.423 159.005 131.417 157.477 132.44 155.903Z" fill="#F2AFBC"/>
<path d="M129.43 203.754C130.92 203.754 132.41 203.754 133.945 203.754C133.945 206.81 133.945 209.866 133.945 213.015C131.958 213.525 129.972 214.034 127.925 214.559C128.422 210.993 128.918 207.428 129.43 203.754Z" fill="#F0B5C0"/>
</svg>
